<?xml version="1.0" encoding="utf-8"?>
<!-- Generator: Adobe Illustrator 24.0.1, SVG Export Plug-In . SVG Version: 6.00 Build 0)  -->
<svg version="1.1" id="Layer_1" xmlns="http://www.w3.org/2000/svg" xmlns:xlink="http://www.w3.org/1999/xlink" x="0px" y="0px"
	 viewBox="0 0 864 144" style="enable-background:new 0 0 864 144;" xml:space="preserve">
<style type="text/css">
	.st0{fill-rule:evenodd;clip-rule:evenodd;fill:#F8993A;}
	.st1{fill-rule:evenodd;clip-rule:evenodd;fill:#F16B46;}
	.st2{fill:#F16B46;}
</style>
<g>
	<path class="st0" d="M66.5,77c-44.9,20.9-38.7-47.6,6.2-16.9C43.8,24.5,3.1,57,22.5,89.9c4.2,4.2,10,7.4,17.4,8.9
		c14.3,3,24.8-0.2,37.5-6.9c15.1-8,31.9-22,49.8-32.3c3.6-2.5,7.1-3.8,10.2-4.3c2.5-0.4,4.9-0.2,7,0.3c22.7,3.9,24.5,35.7,3.9,43.6
		c5.4-0.5,10.1-2.2,15.3-7.6c13.8-14.6,16.1-47.2-13.6-56.2c-10.1-2.8-26.1,1.3-44.1,15.5C93.4,60.5,80.9,70.3,66.5,77L66.5,77z"/>
</g>
<g>
	<path class="st0" d="M131.9,29C113.4-0.6,61.5,2.3,72.6,60.2c-3.6-37.1,35.1-41.2,45.9-24.6C120.2,33.8,129,29.2,131.9,29L131.9,29
		z"/>
</g>
<g>
	<path class="st1" d="M22.5,89.8C1.3,68.9,18.3,22.8,63.1,32c13.4-30.9,53.2-28.9,68.8-3C113.4-0.6,61.5,2.3,72.6,60.2
		C43.8,24.5,3.2,57,22.5,89.8L22.5,89.8z"/>
</g>
<g>
	<path class="st1" d="M144.5,55.5c-0.2-0.1-0.5-0.1-0.7-0.2c13.8,3,17.6,23.2-5.4,24.2c-9.8,0.4-19.8,0-29.5,0
		c-3.9,4.2-25.8,18-29.9,19.9c-0.8,0.3-1.1,0.5-1.1,0.5s43,0,56.3,0c7.9,0,10.7-0.1,14.2-0.8l0,0c0,0,0,0,0,0
		C168.9,91.2,167.1,59.5,144.5,55.5z"/>
</g>
<g>
	<path d="M250.2,43.8h-6.3l-1.7-9.4c-1.5-1.4-3.2-2.6-5.4-3.5c-2.1-0.9-4.7-1.4-7.6-1.4c-6.9,0-12.2,2.5-15.9,7.5
		c-3.7,5-5.6,11.3-5.6,19v1c0,7.7,1.8,14,5.4,19.1c3.6,5,8.7,7.5,15.1,7.5c3,0,5.7-0.5,8.2-1.4c2.5-0.9,4.4-2.1,5.7-3.5l1.7-9.4h6.3
		v11.8c-1.9,2.5-4.8,4.7-8.6,6.6c-3.8,1.9-8.3,2.9-13.3,2.9c-8.6,0-15.7-3.2-21.2-9.6c-5.5-6.4-8.3-14.4-8.3-24v-1
		c0-9.7,2.7-17.8,8.2-24.1c5.4-6.4,12.6-9.5,21.4-9.5c5,0,9.5,1,13.3,2.9c3.8,2,6.7,4.2,8.6,6.6V43.8z"/>
</g>
<g>
	<path d="M257.3,64.6c0-7.3,2-13.3,5.9-18c3.9-4.7,9.3-7.1,16.1-7.1c6.8,0,12.2,2.4,16.1,7.1c4,4.7,5.9,10.7,5.9,18v1
		c0,7.3-2,13.4-5.9,18c-3.9,4.7-9.3,7-16.1,7c-6.8,0-12.2-2.3-16.2-7c-3.9-4.7-5.9-10.7-5.9-18V64.6z M266.3,65.6
		c0,5.2,1.1,9.5,3.3,12.9c2.2,3.4,5.5,5.1,9.8,5.1c4.2,0,7.5-1.7,9.7-5.1c2.2-3.4,3.3-7.7,3.3-12.9v-1c0-5.2-1.1-9.5-3.3-12.9
		c-2.2-3.4-5.5-5.1-9.8-5.1c-4.3,0-7.6,1.7-9.7,5.1c-2.2,3.4-3.3,7.7-3.3,12.9V65.6z"/>
</g>
<g>
	<path d="M306.6,66c0-7.9,1.7-14.3,5.2-19.2c3.5-4.9,8.2-7.3,14.3-7.3c3.1,0,5.8,0.6,8.2,1.8c2.3,1.2,4.3,3,5.9,5.3l0.8-6.2h7.6
		v48.6c0,6.4-1.8,11.4-5.3,15s-8.6,5.5-15.2,5.5c-2.4,0-4.9-0.3-7.7-1c-2.8-0.7-5.2-1.5-7.3-2.7l2.3-7c1.7,0.9,3.6,1.6,5.9,2.2
		c2.3,0.6,4.5,0.9,6.6,0.9c4,0,6.9-1.1,8.8-3.4c1.9-2.2,2.8-5.4,2.8-9.6v-4.7c-1.6,2.1-3.5,3.6-5.8,4.7c-2.2,1.1-4.8,1.6-7.7,1.6
		c-6,0-10.8-2.2-14.3-6.6c-3.5-4.4-5.2-10.1-5.2-17.2V66z M315.5,67c0,4.9,1,8.9,3.1,11.9c2.1,3,5.3,4.5,9.6,4.5
		c2.7,0,5-0.6,6.8-1.8s3.3-3,4.5-5.2V53.7c-1.2-2.1-2.7-3.8-4.5-5c-1.9-1.2-4.1-1.8-6.7-1.8c-4.3,0-7.5,1.8-9.6,5.4
		c-2.1,3.6-3.2,8.2-3.2,13.8V67z"/>
</g>
<g>
	<path d="M356.3,84l7.4-1.3V47.5l-7.4-1.3v-5.8h15.4l0.6,7.3c1.6-2.6,3.7-4.6,6.2-6.1c2.5-1.4,5.3-2.2,8.4-2.2
		c5.3,0,9.4,1.6,12.3,4.7c2.9,3.1,4.4,7.9,4.4,14.4v24.1l7.4,1.3v5.7h-23.8V84l7.4-1.3V58.8c0-4.3-0.9-7.4-2.6-9.2
		c-1.7-1.8-4.3-2.7-7.9-2.7c-2.6,0-4.9,0.6-6.9,1.9c-2,1.2-3.6,2.9-4.8,5.1v28.9l7.4,1.3v5.7h-23.8V84z"/>
</g>
<g>
	<path d="M415.3,84l7.4-1.3V47.5l-7.4-1.3v-5.8h16.4v42.3l7.4,1.3v5.7h-23.8V84z M431.7,27.8h-9v-9.2h9V27.8z"/>
</g>
<g>
	<path d="M459.4,28.6v11.9h9.3v6.6h-9.3V77c0,2.3,0.5,3.9,1.4,4.9c1,0.9,2.2,1.4,3.8,1.4c0.8,0,1.7-0.1,2.7-0.2
		c1-0.1,1.8-0.3,2.5-0.4l1.2,6.1c-0.9,0.5-2.1,1-3.7,1.3c-1.6,0.3-3.3,0.5-4.9,0.5c-3.6,0-6.5-1.1-8.7-3.3
		c-2.2-2.2-3.2-5.7-3.2-10.4V47.1h-7.8v-6.6h7.8V28.6H459.4z"/>
</g>
<g>
	<path d="M477.2,84l7.4-1.3V47.5l-7.4-1.3v-5.8h16.4v42.3L501,84v5.7h-23.8V84z M493.6,27.8h-9v-9.2h9V27.8z"/>
</g>
<g>
	<path d="M521.2,46.2l-5.9,0.9l10.2,28.1l0.8,3.6h0.3l0.9-3.6l9.8-28.1l-6-0.9v-5.8h19v5.8l-4.1,0.7l-16.5,42.8H523l-16.7-42.8
		l-4.1-0.7v-5.8h19V46.2z"/>
</g>
<g>
	<path d="M575.7,90.7c-6.9,0-12.3-2.3-16.4-6.9c-4.1-4.6-6.1-10.5-6.1-17.8v-2c0-7,2.1-12.8,6.3-17.5s9.1-7,14.8-7
		c6.6,0,11.6,2,15.1,6c3.4,4,5.1,9.4,5.1,16v5.6h-32l-0.1,0.2c0.1,4.7,1.3,8.6,3.6,11.7c2.3,3.1,5.5,4.6,9.7,4.6c3,0,5.7-0.4,8-1.3
		s4.3-2.1,5.9-3.6l3.5,5.8c-1.8,1.7-4.1,3.1-7,4.3C583.3,90.1,579.8,90.7,575.7,90.7z M574.4,46.6c-3,0-5.6,1.3-7.7,3.8
		c-2.1,2.5-3.4,5.7-3.9,9.5l0.1,0.2h22.7V59c0-3.5-0.9-6.5-2.8-8.8C580.9,47.8,578.1,46.6,574.4,46.6z"/>
</g>
<g>
	<path d="M633.4,51.8c-5.6-1.4-9.8-3.1-12.2-4.9c-2.3-1.7-3.5-3.8-3.5-6.4c0-3,1.1-5.3,3.4-7.1c2.4-1.9,5.8-2.8,10.4-2.8
		c2.9,0,5.4,0.4,7.6,1.1c2,0.7,3.6,1.5,4.9,2.5l1.8,9.9h8.6V30.2l-0.3-0.3c-2.4-2.4-5.6-4.4-9.5-6c-3.9-1.6-8.3-2.5-13.1-2.5
		c-7.2,0-13.2,1.8-17.8,5.4c-4.6,3.6-7,8.3-7,13.7c0,5.2,2.1,9.6,6.3,13c4,3.3,9.7,5.9,16.8,7.6c5.6,1.4,9.5,3,11.6,4.9
		c2.1,1.9,3.1,4.1,3.1,6.9c0,3-1.2,5.2-3.5,7c-2.4,1.8-5.9,2.7-10.1,2.7c-3.2,0-6-0.4-8.2-1.3c-2.2-0.8-4.1-1.9-5.6-3.1l-1.8-10
		h-8.6V82l0.3,0.3c2.6,2.8,5.9,5.1,10,6.8c4.1,1.7,8.8,2.6,14,2.6c7.2,0,13.2-1.7,17.7-5.1c4.6-3.4,6.9-8,6.9-13.7
		c0-5.2-1.9-9.7-5.8-13.3C646,56.2,640.5,53.5,633.4,51.8z"/>
	<path d="M693.5,73.2v1c0,2.4-1,4.3-3,6c-2.1,1.7-4.5,2.5-7.2,2.5c-4.4,0-7.4-1.5-9.3-4.5c-1.9-3.2-2.9-7.2-2.9-12.1v-1.9
		c0-4.7,1-8.7,2.9-11.9c1.8-3.1,4.9-4.6,9.2-4.6c2,0,3.7,0.3,5.3,0.9c1.4,0.5,2.6,1.3,3.6,2.1l2.1,8.2h9l-0.5-12.3l-0.2-0.3
		c-2.2-2.4-4.9-4.3-8.2-5.6c-3.3-1.3-7-2-11-2c-7.4,0-13.2,2.5-17.2,7.4c-3.9,4.9-5.9,11-5.9,18.2V66c0,7.3,2,13.4,5.9,18.3
		c4,4.9,9.7,7.4,17.2,7.4c5.4,0,10.3-1.7,14.4-5.2c4.2-3.5,6.2-7.6,6-12.1l-0.4-1.2H693.5z"/>
	<path d="M750.4,81.6c0-0.6,0-1.2,0-1.8V56.1c0-5.6-1.9-10-5.6-13c-3.6-3-8.4-4.5-14.2-4.5c-3.8,0-7.4,0.6-10.7,1.7
		c-3.3,1.1-6.1,2.6-8.5,4.5l-0.4,0.3v11h8.8l1-5.7c0.9-0.8,2.1-1.4,3.6-1.9c1.6-0.5,3.5-0.8,5.6-0.8c3,0,5.3,0.8,6.9,2.3
		c1.6,1.5,2.4,3.5,2.4,6.1v4.7h-8.2c-6.8,0-12.2,1.3-16.1,4c-4.1,2.7-6.1,6.6-6.1,11.6c0,4.8,1.5,8.6,4.3,11.3c2.9,2.7,7,4,12.4,4
		c3.1,0,6.1-0.8,8.8-2.3c2-1.1,3.7-2.4,5.2-4c0,0.3,0.1,0.6,0.1,0.9c0.2,1.1,0.4,2.3,0.6,3.7l0.2,0.8h13.6v-7.6l-3.7-0.5
		C750.5,82.3,750.4,82,750.4,81.6z M722.8,71.1c2-1.5,4.7-2.3,8.1-2.3h8.6v6.8c-1,1.7-2.6,3.3-4.8,4.5c-2.3,1.3-4.9,2-7.6,2
		c-2.4,0-4.3-0.5-5.4-1.5c-1.1-0.9-1.7-2.3-1.7-4.2C720,74.4,720.9,72.6,722.8,71.1z"/>
	<polygon points="776.5,17.7 758.1,17.7 758.1,25.3 765.6,26.6 765.6,81.9 758.1,83.1 758.1,90.7 784,90.7 784,83.1 776.5,81.9 	"/>
	<path d="M829,61.6c0-6.9-1.8-12.5-5.4-16.7c-3.6-4.2-8.9-6.4-15.8-6.4c-6,0-11.2,2.5-15.6,7.3c-4.3,4.8-6.5,10.9-6.5,18.2v2
		c0,7.5,2.1,13.7,6.3,18.4c4.2,4.8,10,7.2,17.1,7.2c4.2,0,7.8-0.6,10.8-1.8c3-1.2,5.5-2.7,7.3-4.5l0.6-0.6l-4.5-7.6l-0.9,0.8
		c-1.6,1.4-3.5,2.6-5.6,3.4c-2.2,0.8-4.7,1.2-7.6,1.2c-3.9,0-6.8-1.4-8.9-4.2c-2-2.7-3.2-6.2-3.4-10.3H829V61.6z M807.8,47.6
		c3.4,0,5.9,1,7.6,3.2c1.7,2.2,2.6,4.9,2.6,8.2v0.2h-20.7c0.5-3.2,1.7-6,3.6-8.1C802.8,48.7,805.1,47.6,807.8,47.6z"/>
</g>
<g>
	<path class="st2" d="M366.1,131.7v-16.7h-6v-3.1h15.4v3.1h-6v16.7H366.1z"/>
	<path class="st2" d="M396.6,131.7V123h-10.2v8.7h-3.5v-19.8h3.5v8.1h10.2v-8.1h3.5v19.8H396.6z"/>
	<path class="st2" d="M408.6,131.7v-19.8h13.5v3.1h-10v5.1h9.8v3.1h-9.8v5.5h10v3.1H408.6z"/>
	<path class="st2" d="M446.8,131.7v-16.7h-6v-3.1h15.4v3.1h-6v16.7H446.8z"/>
	<path class="st2" d="M474.8,131.7l-4.3-7.4H467v7.4h-3.5v-19.8h8.6c3.9,0,6.5,2.5,6.5,6.2c0,3.5-2.3,5.4-4.7,5.8l4.8,7.8H474.8z
		 M475.2,118c0-1.9-1.4-3.1-3.4-3.1H467v6.3h4.8C473.7,121.2,475.2,120,475.2,118z"/>
	<path class="st2" d="M486.6,123.8v-12h3.5v11.9c0,3.1,1.7,5.2,5,5.2c3.3,0,5-2,5-5.2v-11.9h3.5v12c0,4.9-2.8,8.2-8.5,8.2
		C489.4,132,486.6,128.7,486.6,123.8z"/>
	<path class="st2" d="M511,128.9l1.9-2.7c1.3,1.5,3.5,2.8,6.2,2.8c2.8,0,3.9-1.4,3.9-2.7c0-4.2-11.5-1.6-11.5-8.8
		c0-3.3,2.8-5.8,7.2-5.8c3,0,5.5,1,7.3,2.8l-1.9,2.6c-1.6-1.6-3.7-2.3-5.7-2.3c-2,0-3.3,1-3.3,2.5c0,3.7,11.5,1.4,11.5,8.8
		c0,3.3-2.3,6.1-7.6,6.1C515.4,132,512.8,130.7,511,128.9z"/>
	<path class="st2" d="M538.6,131.7v-16.7h-6v-3.1H548v3.1h-6v16.7H538.6z"/>
	<path class="st2" d="M555.4,131.7v-19.8h13.5v3.1h-10v5.1h9.8v3.1h-9.8v5.5h10v3.1H555.4z"/>
	<path class="st2" d="M576.8,131.7v-19.8h7.3c6.2,0,10.3,4.1,10.3,9.9c0,5.8-4.1,9.9-10.3,9.9H576.8z M590.9,121.8
		c0-3.8-2.4-6.8-6.7-6.8h-3.9v13.7h3.9C588.4,128.6,590.9,125.5,590.9,121.8z"/>
	<path class="st2" d="M628.1,131.7l-1.4-3.8h-9l-1.4,3.8h-3.9l7.7-19.8h4.3l7.7,19.8H628.1z M622.1,115.3l-3.5,9.4h7.1L622.1,115.3z
		"/>
	<path class="st2" d="M638.5,131.7v-19.8h3.5v19.8H638.5z"/>
	<path class="st2" d="M661.8,121.8c0-6.1,4.5-10.2,10.3-10.2c4,0,6.4,2,7.9,4.4l-2.9,1.5c-0.9-1.7-2.9-2.9-5-2.9
		c-3.9,0-6.8,3-6.8,7.2c0,4.1,2.9,7.2,6.8,7.2c2.1,0,4-1.2,5-2.9l3,1.5c-1.5,2.4-4,4.5-7.9,4.5C666.3,132,661.8,127.9,661.8,121.8z"
		/>
	<path class="st2" d="M686.4,121.8c0-5.9,4.2-10.2,10.1-10.2c5.9,0,10.1,4.3,10.1,10.2s-4.2,10.2-10.1,10.2
		C690.5,132,686.4,127.7,686.4,121.8z M702.9,121.8c0-4.1-2.6-7.2-6.5-7.2c-4,0-6.5,3.1-6.5,7.2c0,4.1,2.5,7.2,6.5,7.2
		C700.4,128.9,702.9,125.9,702.9,121.8z"/>
	<path class="st2" d="M731.2,131.7v-15.3l-6,15.3h-1.5l-6-15.3v15.3h-3.5v-19.8h4.9l5.4,13.6l5.3-13.6h4.9v19.8H731.2z"/>
	<path class="st2" d="M743.3,131.7v-19.8h8.7c4.1,0,6.4,2.8,6.4,6.2c0,3.4-2.3,6.2-6.4,6.2h-5.2v7.4H743.3z M754.8,118.1
		c0-1.9-1.4-3.1-3.3-3.1h-4.8v6.3h4.8C753.4,121.2,754.8,119.9,754.8,118.1z"/>
	<path class="st2" d="M777.3,131.7l-1.4-3.8h-9l-1.4,3.8h-3.9l7.7-19.8h4.3l7.7,19.8H777.3z M771.3,115.3l-3.5,9.4h7.1L771.3,115.3z
		"/>
	<path class="st2" d="M801.5,131.7l-10.3-14.2v14.2h-3.5v-19.8h3.5l10.1,13.7v-13.7h3.5v19.8H801.5z"/>
	<path class="st2" d="M819,131.7v-8.2l-7.6-11.6h4l5.4,8.5l5.4-8.5h4l-7.6,11.6v8.2H819z"/>
</g>
</svg>
